<svg id="svg" version="1.1" xmlns="http://www.w3.org/2000/svg" xmlns:xlink="http://www.w3.org/1999/xlink" width="400" height="400" viewBox="0, 0, 400,400"><g id="svgg"><path id="path0" d="M134.800 124.001 L 134.800 134.002 207.500 133.901 L 280.200 133.800 280.307 123.900 L 280.414 114.000 207.607 114.000 L 134.800 114.000 134.800 124.001 M114.000 165.544 C 114.000 173.346,113.885 175.598,113.468 175.944 C 113.119 176.234,109.502 176.423,102.968 176.493 L 93.000 176.600 93.000 197.000 L 93.000 217.400 103.057 217.507 C 110.920 217.590,113.211 217.732,113.562 218.155 C 114.316 219.062,113.982 380.717,113.226 381.184 C 112.396 381.697,113.393 382.800,114.686 382.800 C 115.229 382.800,116.131 383.160,116.691 383.600 C 117.258 384.046,118.314 384.400,119.078 384.400 C 119.895 384.400,120.347 384.562,120.198 384.803 C 119.903 385.281,121.064 385.782,122.900 385.969 C 123.065 385.986,123.200 386.270,123.200 386.600 C 123.200 387.061,123.711 387.200,125.400 387.200 C 127.333 387.200,127.600 387.297,127.600 388.000 C 127.600 388.667,127.867 388.800,129.200 388.800 C 130.296 388.800,130.800 388.974,130.800 389.353 C 130.800 389.979,131.997 390.386,133.857 390.395 C 134.581 390.398,135.209 390.646,135.336 390.978 C 135.482 391.358,136.286 391.598,137.679 391.678 C 139.244 391.768,139.800 391.957,139.800 392.400 C 139.800 392.867,140.441 393.026,142.700 393.118 C 145.272 393.222,145.600 393.324,145.600 394.018 C 145.600 394.706,145.884 394.800,147.971 394.800 C 149.684 394.800,150.535 394.992,151.033 395.490 C 151.519 395.976,152.566 396.227,154.562 396.337 C 156.422 396.439,157.510 396.684,157.720 397.046 C 157.953 397.450,158.968 397.600,161.457 397.600 C 164.538 397.600,164.895 397.679,165.084 398.400 C 165.280 399.148,165.630 399.200,170.447 399.200 L 175.600 399.200 175.600 382.029 C 175.600 366.952,175.677 364.780,176.229 364.229 C 176.794 363.664,182.096 363.600,228.622 363.600 L 280.386 363.600 280.493 353.300 L 280.600 343.000 290.900 342.893 L 301.200 342.786 301.200 280.593 L 301.200 218.400 280.680 218.400 C 265.253 218.400,260.041 218.281,259.680 217.920 C 259.332 217.572,259.200 214.702,259.200 207.520 L 259.200 197.600 249.574 197.600 C 243.703 197.600,239.646 197.438,239.174 197.186 C 238.424 196.785,238.400 196.129,238.400 176.186 L 238.400 155.600 228.400 155.600 L 218.400 155.600 218.400 176.186 C 218.400 196.129,218.376 196.785,217.626 197.186 C 217.154 197.438,213.097 197.600,207.226 197.600 L 197.600 197.600 197.600 207.226 C 197.600 213.097,197.438 217.154,197.186 217.626 C 196.674 218.582,156.226 218.866,155.280 217.920 C 154.932 217.572,154.800 214.702,154.800 207.520 L 154.800 197.600 145.076 197.600 C 137.925 197.600,135.174 197.468,134.677 197.100 C 134.061 196.644,133.993 194.813,133.901 176.200 L 133.800 155.800 123.900 155.693 L 114.000 155.586 114.000 165.544 M155.867 176.667 C 155.720 176.813,155.600 181.313,155.600 186.667 L 155.600 196.400 176.000 196.400 L 196.400 196.400 196.400 186.400 L 196.400 176.400 176.267 176.400 C 165.193 176.400,156.013 176.520,155.867 176.667 M260.270 176.663 C 260.122 176.812,260.000 181.313,260.000 186.667 L 260.000 196.400 280.607 196.400 L 301.214 196.400 301.107 186.500 L 301.000 176.600 280.770 176.496 C 269.644 176.439,260.419 176.514,260.270 176.663 M259.800 249.200 L 259.800 259.800 238.800 259.800 L 217.800 259.800 217.693 249.607 C 217.634 244.001,217.674 239.184,217.782 238.903 C 217.938 238.497,222.225 238.414,238.889 238.496 L 259.800 238.600 259.800 249.200 M259.800 312.000 L 259.800 322.600 228.400 322.600 L 197.000 322.600 196.893 312.407 C 196.834 306.801,196.874 301.985,196.981 301.704 C 197.138 301.297,203.428 301.216,228.488 301.298 L 259.800 301.400 259.800 312.000 " stroke="none" fill="#c9975f" fill-rule="evenodd"></path><path id="path1" d="M175.600 4.576 L 175.600 8.400 158.533 8.400 C 149.147 8.400,141.601 8.535,141.766 8.700 C 141.931 8.865,149.746 9.090,159.133 9.200 L 176.200 9.400 176.307 19.245 C 176.394 27.229,176.309 29.177,175.861 29.549 C 175.459 29.883,169.800 29.979,154.955 29.904 L 134.600 29.800 134.390 19.600 C 134.274 13.990,134.124 9.580,134.058 9.800 C 133.991 10.020,133.963 14.475,133.997 19.700 L 134.059 29.200 124.058 29.200 C 111.435 29.200,112.800 27.838,112.800 40.429 L 112.800 50.400 102.643 50.400 C 93.750 50.400,92.455 50.479,92.243 51.033 C 92.109 51.381,92.000 56.058,92.000 61.426 L 92.000 71.186 81.700 71.293 L 71.400 71.400 71.293 81.700 L 71.186 92.000 61.426 92.000 C 56.058 92.000,51.381 92.109,51.033 92.243 C 50.463 92.461,50.400 95.600,50.400 123.643 L 50.400 154.800 40.214 154.800 C 30.553 154.800,30.007 154.840,29.614 155.574 C 29.339 156.088,29.200 166.627,29.200 186.974 L 29.200 217.600 19.043 217.600 C 10.150 217.600,8.855 217.679,8.643 218.233 C 8.288 219.156,8.345 258.588,8.700 258.234 C 8.865 258.069,9.090 248.994,9.200 238.067 L 9.400 218.200 19.600 218.200 L 29.800 218.200 29.773 261.000 C 29.759 284.540,29.601 304.745,29.422 305.900 C 29.117 307.877,29.148 308.000,29.949 308.000 C 30.630 308.000,30.800 308.242,30.800 309.213 C 30.800 310.067,31.215 310.842,32.200 311.827 C 32.970 312.597,33.600 313.579,33.600 314.010 C 33.600 314.441,33.960 315.018,34.400 315.293 C 34.840 315.568,35.200 315.953,35.200 316.149 C 35.200 316.345,35.830 317.100,36.600 317.826 C 37.370 318.552,38.000 319.414,38.000 319.740 C 38.000 320.743,38.459 321.600,38.996 321.600 C 39.277 321.600,39.601 321.960,39.716 322.400 C 39.935 323.238,40.976 323.486,41.400 322.800 C 41.539 322.575,43.444 322.400,45.744 322.400 C 48.396 322.400,50.009 322.231,50.320 321.920 C 50.829 321.411,51.062 219.948,50.557 218.633 C 50.345 218.079,49.050 218.000,40.157 218.000 L 30.000 218.000 30.000 186.800 L 30.000 155.600 40.400 155.600 L 50.800 155.600 50.800 186.607 L 50.800 217.614 61.100 217.507 L 71.400 217.400 71.600 196.800 L 71.800 176.200 82.100 176.093 L 92.400 175.986 92.400 155.473 C 92.400 140.052,92.519 134.841,92.880 134.480 C 93.228 134.132,96.098 134.000,103.280 134.000 L 113.200 134.000 113.200 124.080 C 113.200 116.898,113.332 114.028,113.680 113.680 C 114.028 113.332,116.898 113.200,124.080 113.200 L 134.000 113.200 134.000 103.280 C 134.000 96.098,134.132 93.228,134.480 92.880 C 135.314 92.046,280.237 92.198,280.557 93.033 C 280.691 93.381,280.800 98.061,280.800 103.433 L 280.800 113.200 290.567 113.200 C 295.939 113.200,300.619 113.309,300.967 113.443 C 301.521 113.655,301.600 114.950,301.600 123.843 L 301.600 134.000 311.500 134.006 C 316.945 134.009,321.623 134.154,321.896 134.327 C 322.279 134.570,322.416 139.368,322.496 155.221 L 322.600 175.800 332.568 175.907 C 339.102 175.977,342.719 176.166,343.068 176.456 C 343.498 176.813,343.600 180.796,343.600 197.249 L 343.600 217.600 353.800 217.600 L 364.000 217.600 364.000 186.600 L 364.000 155.600 374.400 155.600 L 384.800 155.600 384.800 186.800 L 384.800 218.000 374.592 218.000 L 364.384 218.000 364.492 266.567 C 364.552 293.278,364.731 315.264,364.890 315.424 C 365.322 315.855,366.400 314.813,366.400 313.964 C 366.400 313.559,367.030 312.597,367.800 311.827 C 368.785 310.842,369.200 310.067,369.200 309.213 C 369.200 308.267,369.376 308.000,370.000 308.000 C 370.511 308.000,370.800 307.733,370.800 307.262 C 370.800 306.856,371.160 306.198,371.600 305.800 C 372.040 305.402,372.400 304.744,372.400 304.338 C 372.400 303.932,372.662 303.600,372.982 303.600 C 373.328 303.600,373.668 303.044,373.821 302.228 C 373.963 301.473,374.331 300.759,374.639 300.640 C 374.974 300.512,375.200 299.855,375.200 299.013 C 375.200 297.867,375.351 297.600,376.000 297.600 C 376.444 297.600,376.800 297.333,376.800 297.000 C 376.800 296.670,377.160 296.040,377.600 295.600 C 378.040 295.160,378.400 294.459,378.400 294.043 C 378.400 293.626,378.647 293.191,378.949 293.075 C 379.252 292.959,379.617 292.237,379.760 291.471 C 379.904 290.704,380.287 289.976,380.611 289.851 C 380.935 289.727,381.200 289.169,381.200 288.613 C 381.200 288.056,381.560 287.240,382.000 286.800 C 382.492 286.308,382.800 285.467,382.800 284.614 C 382.800 283.638,383.036 283.102,383.600 282.800 C 384.164 282.498,384.400 281.962,384.400 280.986 C 384.400 280.048,384.586 279.600,384.975 279.600 C 385.776 279.600,385.906 277.531,385.298 274.457 C 384.917 272.534,384.819 265.373,384.897 245.057 L 385.000 218.200 392.600 217.987 L 400.200 217.773 392.900 217.687 L 385.600 217.600 385.600 186.680 C 385.600 163.164,385.485 155.645,385.120 155.280 C 384.772 154.932,381.902 154.800,374.720 154.800 L 364.800 154.800 364.800 124.174 C 364.800 103.827,364.661 93.288,364.386 92.774 C 363.993 92.040,363.447 92.000,353.793 92.000 L 343.614 92.000 343.507 81.700 L 343.400 71.400 333.107 71.293 L 322.813 71.187 322.707 60.893 L 322.600 50.600 312.300 50.493 L 302.000 50.386 302.000 40.207 C 302.000 27.855,303.365 29.200,290.826 29.200 L 281.200 29.200 281.160 22.300 C 281.137 18.220,280.989 15.809,280.800 16.400 C 280.624 16.950,280.462 20.237,280.440 23.704 L 280.400 30.007 259.700 29.904 L 239.000 29.800 238.893 19.500 L 238.786 9.200 247.093 9.177 C 251.662 9.164,256.120 9.005,257.000 8.823 C 258.032 8.610,255.156 8.476,248.900 8.446 L 239.200 8.400 239.154 5.300 C 239.102 1.796,238.469 3.528,238.423 7.300 L 238.400 9.200 207.400 9.200 L 176.400 9.200 176.400 5.224 C 176.400 3.004,176.223 1.138,176.000 1.000 C 175.744 0.842,175.600 2.129,175.600 4.576 M134.307 40.300 L 134.200 50.600 123.900 50.707 L 113.600 50.814 113.600 40.673 C 113.600 35.096,113.720 30.413,113.867 30.267 C 114.013 30.120,118.696 30.000,124.273 30.000 L 134.414 30.000 134.307 40.300 M301.107 40.507 L 301.214 50.814 290.907 50.707 L 280.600 50.600 280.493 40.808 C 280.434 35.422,280.474 30.784,280.583 30.501 C 280.738 30.096,282.942 30.009,290.890 30.093 L 301.000 30.200 301.107 40.507 M113.107 51.134 C 113.499 51.383,113.590 53.717,113.507 61.428 L 113.400 71.400 103.100 71.507 L 92.800 71.614 92.800 61.473 C 92.800 55.896,92.920 51.213,93.067 51.067 C 93.449 50.684,112.499 50.748,113.107 51.134 M321.907 61.307 L 322.014 71.614 311.707 71.507 L 301.400 71.400 301.293 61.428 C 301.210 53.719,301.301 51.382,301.693 51.130 C 301.972 50.951,306.610 50.848,312.000 50.902 L 321.800 51.000 321.907 61.307 M92.800 81.920 C 92.800 89.102,92.668 91.972,92.320 92.320 C 91.972 92.668,89.102 92.800,81.920 92.800 L 72.000 92.800 72.000 82.400 L 72.000 72.000 82.400 72.000 L 92.800 72.000 92.800 81.920 M343.000 82.400 L 343.000 92.600 332.800 92.600 L 322.600 92.600 322.493 82.293 L 322.386 71.986 332.693 72.093 L 343.000 72.200 343.000 82.400 M71.600 124.007 L 71.600 155.214 61.300 155.107 L 51.000 155.000 50.897 124.400 C 50.840 107.570,50.879 93.575,50.984 93.300 C 51.130 92.918,53.586 92.800,61.387 92.800 L 71.600 92.800 71.600 124.007 M363.902 124.107 L 364.005 155.214 353.702 155.107 L 343.400 155.000 343.298 123.893 L 343.195 92.786 353.498 92.893 L 363.800 93.000 363.902 124.107 M134.493 123.900 L 134.600 134.200 207.179 134.301 C 247.097 134.357,279.893 134.267,280.059 134.101 C 280.225 133.935,247.609 133.846,207.580 133.902 L 134.800 134.004 134.800 124.003 L 134.800 114.002 207.700 113.900 L 280.600 113.798 207.493 113.699 L 134.386 113.600 134.493 123.900 M113.792 155.693 C 113.688 155.972,113.558 160.610,113.502 166.000 L 113.400 175.800 103.000 176.000 L 92.600 176.200 92.496 196.555 C 92.422 211.104,92.520 217.063,92.840 217.448 C 93.188 217.868,95.503 218.010,103.343 218.093 L 113.400 218.200 113.400 299.759 C 113.400 344.616,113.525 380.616,113.677 379.759 C 114.251 376.527,114.047 218.537,113.468 218.056 C 113.119 217.766,109.502 217.577,102.968 217.507 L 93.000 217.400 93.000 197.000 L 93.000 176.600 102.968 176.493 C 109.502 176.423,113.119 176.234,113.468 175.944 C 113.885 175.598,114.000 173.346,114.000 165.544 L 114.000 155.586 123.900 155.693 L 133.800 155.800 133.901 176.200 C 133.993 194.813,134.061 196.644,134.677 197.100 C 135.174 197.468,137.925 197.600,145.076 197.600 L 154.800 197.600 154.800 207.520 C 154.800 214.702,154.932 217.572,155.280 217.920 C 156.226 218.866,196.674 218.582,197.186 217.626 C 197.438 217.154,197.600 213.097,197.600 207.226 L 197.600 197.600 207.226 197.600 C 213.097 197.600,217.154 197.438,217.626 197.186 C 218.376 196.785,218.400 196.129,218.400 176.186 L 218.400 155.600 228.400 155.600 L 238.400 155.600 238.400 176.186 C 238.400 196.129,238.424 196.785,239.174 197.186 C 239.646 197.438,243.703 197.600,249.574 197.600 L 259.200 197.600 259.200 207.520 C 259.200 214.702,259.332 217.572,259.680 217.920 C 260.041 218.281,265.253 218.400,280.680 218.400 L 301.200 218.400 301.200 280.593 L 301.200 342.786 290.933 342.893 C 282.226 342.984,280.636 343.091,280.468 343.600 C 280.306 344.089,280.380 344.109,280.867 343.707 C 281.297 343.353,284.263 343.184,291.432 343.107 L 301.400 343.000 301.400 280.600 L 301.400 218.200 281.037 218.096 C 266.810 218.024,260.511 217.858,260.137 217.547 C 259.714 217.197,259.600 214.985,259.600 207.151 L 259.600 197.200 249.649 197.200 C 241.815 197.200,239.603 197.086,239.253 196.663 C 238.942 196.289,238.776 189.990,238.704 175.763 L 238.600 155.400 228.400 155.400 L 218.200 155.400 218.096 175.763 C 218.024 189.990,217.858 196.289,217.547 196.663 C 217.197 197.086,214.985 197.200,207.151 197.200 L 197.200 197.200 197.200 207.151 C 197.200 215.066,197.088 217.195,196.655 217.555 C 196.261 217.882,190.453 217.979,175.755 217.904 L 155.400 217.800 155.293 207.500 L 155.186 197.200 145.293 197.194 C 139.852 197.191,135.177 197.046,134.904 196.873 C 134.521 196.630,134.384 191.832,134.304 175.979 L 134.200 155.400 124.090 155.293 C 116.216 155.210,113.939 155.298,113.792 155.693 M217.782 238.903 C 217.674 239.184,217.634 244.001,217.693 249.607 L 217.800 259.800 238.800 259.800 L 259.800 259.800 259.800 249.200 L 259.800 238.600 238.889 238.496 C 222.225 238.414,217.938 238.497,217.782 238.903 M259.400 249.200 L 259.400 259.400 238.800 259.400 L 218.200 259.400 218.093 249.608 C 218.034 244.222,218.074 239.585,218.182 239.304 C 218.338 238.896,222.534 238.814,238.889 238.896 L 259.400 239.000 259.400 249.200 M196.981 301.704 C 196.874 301.985,196.834 306.801,196.893 312.407 L 197.000 322.600 228.400 322.600 L 259.800 322.600 259.800 312.000 L 259.800 301.400 228.488 301.298 C 203.428 301.216,197.138 301.297,196.981 301.704 M259.400 312.000 L 259.400 322.200 228.400 322.200 L 197.400 322.200 197.293 311.898 L 197.186 301.595 228.293 301.698 L 259.400 301.800 259.400 312.000 M50.999 322.900 C 50.903 323.175,50.754 325.470,50.669 328.000 C 50.585 330.530,50.376 333.106,50.206 333.724 C 49.946 334.671,50.032 334.883,50.749 335.071 C 51.239 335.199,51.600 335.615,51.600 336.051 C 51.600 336.467,51.960 337.116,52.400 337.493 C 52.840 337.870,53.200 338.408,53.200 338.689 C 53.200 338.970,53.487 339.200,53.837 339.200 C 54.188 339.200,54.569 339.560,54.684 340.000 C 54.799 340.440,55.142 340.800,55.447 340.800 C 55.751 340.800,56.000 341.087,56.000 341.437 C 56.000 341.788,56.360 342.169,56.800 342.284 C 57.240 342.399,57.600 342.759,57.600 343.084 C 57.600 343.409,57.960 343.769,58.400 343.884 C 58.840 343.999,59.200 344.321,59.200 344.600 C 59.200 344.879,59.560 345.201,60.000 345.316 C 60.440 345.431,60.800 345.812,60.800 346.163 C 60.800 346.513,61.030 346.800,61.311 346.800 C 61.592 346.800,62.130 347.160,62.507 347.600 C 62.884 348.040,63.533 348.400,63.949 348.400 C 64.370 348.400,64.800 348.755,64.916 349.200 C 65.031 349.640,65.391 350.000,65.716 350.000 C 66.041 350.000,66.401 350.360,66.516 350.800 C 66.631 351.240,67.012 351.600,67.363 351.600 C 67.713 351.600,68.000 351.870,68.000 352.200 C 68.000 352.533,68.356 352.800,68.800 352.800 C 69.333 352.800,69.600 353.067,69.600 353.600 C 69.600 355.395,71.077 354.501,71.346 352.544 C 71.953 348.116,71.633 322.898,70.967 322.643 C 69.643 322.135,51.185 322.372,50.999 322.900 M343.867 322.667 C 343.529 323.004,343.514 337.872,343.850 339.550 C 344.131 340.954,344.997 341.220,345.316 340.000 C 345.431 339.560,345.812 339.200,346.163 339.200 C 346.513 339.200,346.800 338.970,346.800 338.689 C 346.800 338.408,347.160 337.870,347.600 337.493 C 348.040 337.116,348.400 336.467,348.400 336.051 C 348.400 335.630,348.755 335.200,349.200 335.084 C 349.640 334.969,350.000 334.609,350.000 334.284 C 350.000 333.959,350.360 333.599,350.800 333.484 C 351.240 333.369,351.600 332.988,351.600 332.637 C 351.600 332.287,351.870 332.000,352.200 332.000 C 352.533 332.000,352.800 331.644,352.800 331.200 C 352.800 330.667,353.067 330.400,353.600 330.400 C 354.040 330.400,354.400 330.226,354.400 330.013 C 354.400 329.801,355.010 329.017,355.756 328.271 C 356.501 327.526,357.235 326.350,357.387 325.658 C 357.539 324.966,357.919 324.400,358.232 324.400 C 359.590 324.400,358.790 322.903,357.300 322.657 C 355.280 322.323,344.202 322.331,343.867 322.667 M322.667 343.867 C 322.331 344.202,322.323 355.280,322.657 357.300 C 322.903 358.790,324.400 359.590,324.400 358.232 C 324.400 357.919,324.966 357.539,325.658 357.387 C 326.350 357.235,327.526 356.501,328.271 355.756 C 329.017 355.010,329.801 354.400,330.013 354.400 C 330.226 354.400,330.400 354.040,330.400 353.600 C 330.400 353.067,330.667 352.800,331.200 352.800 C 331.644 352.800,332.000 352.533,332.000 352.200 C 332.000 351.870,332.287 351.600,332.637 351.600 C 332.988 351.600,333.369 351.240,333.484 350.800 C 333.599 350.360,333.959 350.000,334.284 350.000 C 334.609 350.000,334.969 349.640,335.084 349.200 C 335.200 348.755,335.630 348.400,336.051 348.400 C 336.467 348.400,337.116 348.040,337.493 347.600 C 337.870 347.160,338.408 346.800,338.689 346.800 C 338.970 346.800,339.200 346.513,339.200 346.163 C 339.200 345.812,339.560 345.431,340.000 345.316 C 341.220 344.997,340.954 344.131,339.550 343.850 C 337.872 343.514,323.004 343.529,322.667 343.867 M176.229 364.229 C 175.674 364.784,175.611 366.877,175.696 382.129 L 175.791 399.400 175.900 382.145 C 175.987 368.331,176.115 364.802,176.543 364.447 C 176.928 364.128,191.641 363.974,228.839 363.900 L 280.600 363.797 228.729 363.698 C 182.022 363.610,176.795 363.663,176.229 364.229 M85.500 364.679 C 84.895 364.775,84.400 364.985,84.400 365.147 C 84.400 365.685,85.351 366.400,86.067 366.400 C 86.455 366.400,87.403 367.030,88.173 367.800 C 90.761 370.388,92.672 369.540,92.329 365.955 L 92.200 364.600 89.400 364.552 C 87.860 364.526,86.105 364.583,85.500 364.679 M301.814 364.778 C 301.264 365.668,301.745 374.029,302.333 373.804 C 302.626 373.692,303.031 373.600,303.233 373.600 C 303.435 373.600,303.600 373.330,303.600 373.000 C 303.600 372.670,303.932 372.400,304.338 372.400 C 304.744 372.400,305.402 372.040,305.800 371.600 C 306.198 371.160,306.856 370.800,307.262 370.800 C 307.733 370.800,308.000 370.511,308.000 370.000 C 308.000 369.376,308.267 369.200,309.213 369.200 C 310.067 369.200,310.842 368.785,311.827 367.800 C 312.597 367.030,313.559 366.400,313.964 366.400 C 314.813 366.400,315.855 365.322,315.424 364.890 C 314.906 364.372,302.129 364.267,301.814 364.778 M239.067 385.467 C 238.731 385.802,238.724 394.085,239.057 396.100 C 239.323 397.710,241.522 398.357,242.280 397.048 C 242.485 396.694,243.582 396.436,245.340 396.327 C 247.378 396.200,248.178 395.983,248.460 395.478 C 248.757 394.948,249.412 394.800,251.457 394.800 C 253.738 394.800,254.102 394.697,254.284 394.000 C 254.463 393.314,254.830 393.200,256.851 393.200 C 258.713 393.200,259.352 393.032,259.893 392.400 C 260.399 391.809,261.073 391.600,262.469 391.600 C 263.635 391.600,264.483 391.392,264.680 391.059 C 264.856 390.761,265.804 390.413,266.786 390.285 C 267.768 390.158,268.778 389.771,269.030 389.427 C 269.282 389.081,270.069 388.800,270.782 388.800 C 271.728 388.800,272.130 388.590,272.279 388.019 C 272.442 387.395,272.894 387.215,274.538 387.119 C 277.748 386.933,277.627 385.800,274.359 385.459 C 271.085 385.117,239.410 385.124,239.067 385.467 " stroke="none" fill="#545454" fill-rule="evenodd"></path><path id="path2" d="M165.073 1.641 C 164.897 2.316,164.473 2.400,161.237 2.400 C 158.271 2.400,157.600 2.511,157.600 3.000 C 157.600 3.475,157.031 3.600,154.875 3.600 C 152.704 3.600,151.977 3.762,151.292 4.400 C 150.630 5.017,149.881 5.200,148.017 5.200 C 145.867 5.200,145.600 5.288,145.600 6.000 C 145.600 6.710,145.333 6.800,143.233 6.800 C 140.503 6.800,139.600 7.059,139.600 7.843 C 139.600 8.311,142.481 8.400,157.600 8.400 L 175.600 8.400 175.600 4.582 L 175.600 0.765 170.436 0.824 C 165.729 0.877,165.254 0.949,165.073 1.641 M239.200 5.400 L 239.200 8.400 249.800 8.400 C 258.594 8.400,260.400 8.305,260.400 7.843 C 260.400 7.059,259.497 6.800,256.767 6.800 C 254.667 6.800,254.400 6.710,254.400 6.000 C 254.400 5.288,254.133 5.200,251.983 5.200 C 250.119 5.200,249.370 5.017,248.708 4.400 C 248.023 3.762,247.296 3.600,245.125 3.600 C 242.969 3.600,242.400 3.475,242.400 3.000 C 242.400 2.567,241.956 2.400,240.800 2.400 L 239.200 2.400 239.200 5.400 M131.700 10.012 C 131.205 10.211,130.800 10.560,130.800 10.787 C 130.800 11.014,130.080 11.200,129.200 11.200 C 127.867 11.200,127.600 11.333,127.600 12.000 C 127.600 12.694,127.333 12.800,125.587 12.800 C 124.230 12.800,123.505 12.983,123.360 13.361 C 123.241 13.669,122.544 14.034,121.811 14.172 C 121.077 14.309,120.376 14.687,120.251 15.011 C 120.126 15.338,119.521 15.600,118.889 15.600 C 118.264 15.600,117.404 15.883,116.976 16.230 C 116.549 16.576,116.470 16.727,116.800 16.566 C 117.153 16.393,117.263 16.422,117.067 16.636 C 116.687 17.051,116.538 17.081,114.563 17.150 C 113.486 17.187,113.073 17.401,112.916 18.000 C 112.759 18.601,112.370 18.800,111.353 18.800 C 110.473 18.800,110.000 18.992,110.000 19.349 C 110.000 19.680,109.365 19.999,108.400 20.154 C 107.365 20.319,106.800 20.620,106.800 21.005 C 106.800 21.403,106.391 21.600,105.563 21.600 C 104.662 21.600,104.268 21.817,104.116 22.400 C 104.000 22.843,103.570 23.200,103.153 23.200 C 102.667 23.200,102.400 23.483,102.400 24.000 C 102.400 24.667,102.133 24.800,100.800 24.800 C 99.644 24.800,99.200 24.967,99.200 25.400 C 99.200 25.730,98.855 26.000,98.433 26.000 C 97.241 26.000,96.400 26.431,96.400 27.043 C 96.400 27.349,96.055 27.600,95.633 27.600 C 94.441 27.600,93.600 28.031,93.600 28.643 C 93.600 28.949,93.240 29.200,92.800 29.200 C 92.267 29.200,92.000 29.467,92.000 30.000 C 92.000 30.667,91.733 30.800,90.400 30.800 C 89.244 30.800,88.800 30.967,88.800 31.400 C 88.800 31.730,88.513 32.000,88.163 32.000 C 87.812 32.000,87.431 32.360,87.316 32.800 C 87.166 33.374,86.770 33.600,85.916 33.600 C 85.062 33.600,84.666 33.826,84.516 34.400 C 84.400 34.843,83.970 35.200,83.553 35.200 C 83.139 35.200,82.800 35.470,82.800 35.800 C 82.800 36.130,82.513 36.400,82.163 36.400 C 81.812 36.400,81.431 36.760,81.316 37.200 C 81.166 37.774,80.770 38.000,79.916 38.000 C 79.062 38.000,78.666 38.226,78.516 38.800 C 78.400 39.243,77.970 39.600,77.553 39.600 C 77.067 39.600,76.800 39.883,76.800 40.400 C 76.800 40.852,76.533 41.200,76.187 41.200 C 75.851 41.200,75.478 41.452,75.360 41.761 C 75.241 42.069,74.527 42.437,73.772 42.579 C 73.018 42.720,72.400 43.077,72.400 43.371 C 72.400 43.666,72.040 44.001,71.600 44.116 C 71.160 44.231,70.800 44.612,70.800 44.963 C 70.800 45.313,70.530 45.600,70.200 45.600 C 69.867 45.600,69.600 45.956,69.600 46.400 C 69.600 46.933,69.333 47.200,68.800 47.200 C 68.356 47.200,68.000 47.467,68.000 47.800 C 68.000 48.133,67.644 48.400,67.200 48.400 C 66.667 48.400,66.400 48.667,66.400 49.200 C 66.400 49.733,66.133 50.000,65.600 50.000 C 65.067 50.000,64.800 50.267,64.800 50.800 C 64.800 51.428,64.533 51.600,63.563 51.600 C 62.662 51.600,62.268 51.817,62.116 52.400 C 62.001 52.840,61.703 53.203,61.453 53.207 C 60.879 53.216,59.200 54.967,59.200 55.556 C 59.200 55.800,58.840 56.000,58.400 56.000 C 57.867 56.000,57.600 56.267,57.600 56.800 C 57.600 57.333,57.333 57.600,56.800 57.600 C 56.267 57.600,56.000 57.867,56.000 58.400 C 56.000 58.840,55.775 59.203,55.500 59.207 C 54.914 59.215,53.200 60.931,53.200 61.510 C 53.200 61.728,52.840 62.001,52.400 62.116 C 51.817 62.268,51.600 62.662,51.600 63.563 C 51.600 64.533,51.428 64.800,50.800 64.800 C 50.267 64.800,50.000 65.067,50.000 65.600 C 50.000 66.133,49.733 66.400,49.200 66.400 C 48.667 66.400,48.400 66.667,48.400 67.200 C 48.400 67.644,48.133 68.000,47.800 68.000 C 47.467 68.000,47.200 68.356,47.200 68.800 C 47.200 69.333,46.933 69.600,46.400 69.600 C 45.956 69.600,45.600 69.867,45.600 70.200 C 45.600 70.530,45.313 70.800,44.963 70.800 C 44.612 70.800,44.231 71.160,44.116 71.600 C 44.001 72.040,43.666 72.400,43.371 72.400 C 43.077 72.400,42.720 73.018,42.579 73.772 C 42.437 74.527,42.069 75.241,41.761 75.360 C 41.452 75.478,41.200 75.851,41.200 76.187 C 41.200 76.533,40.852 76.800,40.400 76.800 C 39.883 76.800,39.600 77.067,39.600 77.553 C 39.600 77.970,39.243 78.400,38.800 78.516 C 38.217 78.668,38.000 79.062,38.000 79.963 C 38.000 80.828,37.808 81.200,37.363 81.200 C 37.012 81.200,36.631 81.560,36.516 82.000 C 36.401 82.440,36.058 82.800,35.753 82.800 C 35.449 82.800,35.200 83.139,35.200 83.553 C 35.200 83.970,34.843 84.400,34.400 84.516 C 33.826 84.666,33.600 85.062,33.600 85.916 C 33.600 86.770,33.374 87.166,32.800 87.316 C 32.360 87.431,32.000 87.812,32.000 88.163 C 32.000 88.513,31.730 88.800,31.400 88.800 C 30.978 88.800,30.800 89.226,30.800 90.237 C 30.800 91.338,30.613 91.724,30.000 91.884 C 29.557 92.000,29.200 92.430,29.200 92.847 C 29.200 93.261,28.949 93.600,28.643 93.600 C 28.031 93.600,27.600 94.441,27.600 95.633 C 27.600 96.055,27.349 96.400,27.043 96.400 C 26.431 96.400,26.000 97.241,26.000 98.433 C 26.000 98.855,25.730 99.200,25.400 99.200 C 24.967 99.200,24.800 99.644,24.800 100.800 C 24.800 102.133,24.667 102.400,24.000 102.400 C 23.483 102.400,23.200 102.667,23.200 103.153 C 23.200 103.570,22.843 104.000,22.400 104.116 C 21.817 104.268,21.600 104.662,21.600 105.563 C 21.600 106.391,21.403 106.800,21.005 106.800 C 20.620 106.800,20.319 107.365,20.154 108.400 C 19.999 109.365,19.680 110.000,19.349 110.000 C 18.992 110.000,18.800 110.473,18.800 111.353 C 18.800 112.370,18.601 112.759,18.000 112.916 C 17.281 113.104,16.863 115.068,17.153 116.900 C 17.179 117.065,17.065 117.179,16.900 117.153 C 15.897 116.994,15.600 117.328,15.600 118.613 C 15.600 119.488,15.376 120.111,15.011 120.251 C 14.687 120.376,14.309 121.077,14.172 121.811 C 14.034 122.544,13.669 123.241,13.361 123.360 C 12.983 123.505,12.800 124.230,12.800 125.587 C 12.800 127.333,12.694 127.600,12.000 127.600 C 11.347 127.600,11.200 127.867,11.200 129.056 C 11.200 129.929,10.944 130.699,10.559 130.980 C 10.200 131.243,9.826 132.273,9.707 133.324 C 9.570 134.543,9.304 135.200,8.948 135.200 C 8.550 135.200,8.400 135.804,8.400 137.400 C 8.400 139.014,8.252 139.600,7.843 139.600 C 7.059 139.600,6.800 140.503,6.800 143.233 C 6.800 145.333,6.710 145.600,6.000 145.600 C 5.288 145.600,5.200 145.867,5.200 148.017 C 5.200 149.881,5.017 150.630,4.400 151.292 C 3.762 151.977,3.600 152.704,3.600 154.875 C 3.600 157.031,3.475 157.600,3.000 157.600 C 2.511 157.600,2.400 158.271,2.400 161.237 C 2.400 164.538,2.326 164.894,1.600 165.084 C 0.852 165.280,0.800 165.630,0.800 170.447 C 0.800 173.616,0.646 175.600,0.400 175.600 C 0.138 175.600,0.000 184.000,0.000 200.000 C 0.000 216.000,0.138 224.400,0.400 224.400 C 0.646 224.400,0.800 226.384,0.800 229.553 C 0.800 234.370,0.852 234.720,1.600 234.916 C 2.326 235.106,2.400 235.462,2.400 238.763 C 2.400 241.729,2.511 242.400,3.000 242.400 C 3.475 242.400,3.600 242.969,3.600 245.125 C 3.600 247.296,3.762 248.023,4.400 248.708 C 5.017 249.370,5.200 250.119,5.200 251.983 C 5.200 254.133,5.288 254.400,6.000 254.400 C 6.710 254.400,6.800 254.667,6.800 256.767 C 6.800 259.497,7.059 260.400,7.843 260.400 C 8.312 260.400,8.400 257.117,8.400 239.633 C 8.400 228.211,8.509 218.581,8.643 218.233 C 8.855 217.679,10.150 217.600,19.043 217.600 L 29.200 217.600 29.200 186.974 C 29.200 166.627,29.339 156.088,29.614 155.574 C 30.007 154.840,30.553 154.800,40.214 154.800 L 50.400 154.800 50.400 123.643 C 50.400 95.600,50.463 92.461,51.033 92.243 C 51.381 92.109,56.058 92.000,61.426 92.000 L 71.186 92.000 71.293 81.700 L 71.400 71.400 81.700 71.293 L 92.000 71.186 92.000 61.426 C 92.000 56.058,92.109 51.381,92.243 51.033 C 92.455 50.479,93.750 50.400,102.643 50.400 L 112.800 50.400 112.800 40.429 C 112.800 27.838,111.435 29.200,124.056 29.200 L 134.054 29.200 133.965 19.400 C 133.867 8.767,133.950 9.108,131.700 10.012 M281.200 22.400 L 281.200 29.200 290.826 29.200 C 303.365 29.200,302.000 27.855,302.000 40.207 L 302.000 50.386 312.300 50.493 L 322.600 50.600 322.707 60.893 L 322.813 71.187 333.107 71.293 L 343.400 71.400 343.507 81.700 L 343.614 92.000 353.793 92.000 C 363.447 92.000,363.993 92.040,364.386 92.774 C 364.661 93.288,364.800 103.827,364.800 124.174 L 364.800 154.800 374.720 154.800 C 381.902 154.800,384.772 154.932,385.120 155.280 C 385.485 155.645,385.600 163.164,385.600 186.680 L 385.600 217.600 392.800 217.600 L 400.000 217.600 400.000 196.633 C 400.000 183.650,399.854 175.616,399.617 175.533 C 399.405 175.459,399.208 173.141,399.175 170.336 C 399.121 165.729,399.047 165.253,398.358 165.073 C 397.684 164.897,397.600 164.471,397.600 161.237 C 397.600 158.271,397.489 157.600,397.000 157.600 C 396.525 157.600,396.400 157.031,396.400 154.875 C 396.400 152.704,396.238 151.977,395.600 151.292 C 394.983 150.630,394.800 149.881,394.800 148.017 C 394.800 145.867,394.712 145.600,394.000 145.600 C 393.290 145.600,393.200 145.333,393.200 143.233 C 393.200 140.503,392.941 139.600,392.157 139.600 C 391.748 139.600,391.600 139.014,391.600 137.400 C 391.600 135.804,391.450 135.200,391.052 135.200 C 390.696 135.200,390.430 134.543,390.293 133.324 C 390.174 132.273,389.800 131.243,389.441 130.980 C 389.056 130.699,388.800 129.929,388.800 129.056 C 388.800 127.867,388.653 127.600,388.000 127.600 C 387.306 127.600,387.200 127.333,387.200 125.587 C 387.200 124.230,387.017 123.505,386.639 123.360 C 386.331 123.241,385.966 122.544,385.828 121.811 C 385.691 121.077,385.313 120.376,384.989 120.251 C 384.662 120.126,384.400 119.521,384.400 118.889 C 384.400 118.264,384.117 117.404,383.770 116.976 C 383.424 116.549,383.273 116.470,383.434 116.800 C 383.607 117.153,383.578 117.263,383.364 117.067 C 382.949 116.687,382.919 116.538,382.850 114.563 C 382.813 113.486,382.599 113.073,382.000 112.916 C 381.399 112.759,381.200 112.370,381.200 111.353 C 381.200 110.473,381.008 110.000,380.651 110.000 C 380.320 110.000,380.001 109.365,379.846 108.400 C 379.681 107.365,379.380 106.800,378.995 106.800 C 378.597 106.800,378.400 106.391,378.400 105.563 C 378.400 104.662,378.183 104.268,377.600 104.116 C 377.157 104.000,376.800 103.570,376.800 103.153 C 376.800 102.667,376.517 102.400,376.000 102.400 C 375.333 102.400,375.200 102.133,375.200 100.800 C 375.200 99.644,375.033 99.200,374.600 99.200 C 374.270 99.200,374.000 98.855,374.000 98.433 C 374.000 97.241,373.569 96.400,372.957 96.400 C 372.651 96.400,372.400 96.055,372.400 95.633 C 372.400 94.441,371.969 93.600,371.357 93.600 C 371.051 93.600,370.800 93.261,370.800 92.847 C 370.800 92.430,370.443 92.000,370.000 91.884 C 369.387 91.724,369.200 91.338,369.200 90.237 C 369.200 89.280,369.015 88.800,368.647 88.800 C 368.342 88.800,367.999 88.440,367.884 88.000 C 367.769 87.560,367.388 87.200,367.037 87.200 C 366.592 87.200,366.400 86.828,366.400 85.963 C 366.400 85.062,366.183 84.668,365.600 84.516 C 365.157 84.400,364.800 83.970,364.800 83.553 C 364.800 83.139,364.551 82.800,364.247 82.800 C 363.942 82.800,363.599 82.440,363.484 82.000 C 363.369 81.560,362.988 81.200,362.637 81.200 C 362.192 81.200,362.000 80.828,362.000 79.963 C 362.000 79.062,361.783 78.668,361.200 78.516 C 360.757 78.400,360.400 77.970,360.400 77.553 C 360.400 77.067,360.117 76.800,359.600 76.800 C 359.148 76.800,358.800 76.533,358.800 76.187 C 358.800 75.851,358.548 75.478,358.239 75.360 C 357.931 75.241,357.563 74.527,357.421 73.772 C 357.280 73.018,356.923 72.400,356.629 72.400 C 356.334 72.400,355.999 72.040,355.884 71.600 C 355.769 71.160,355.388 70.800,355.037 70.800 C 354.687 70.800,354.400 70.530,354.400 70.200 C 354.400 69.867,354.044 69.600,353.600 69.600 C 353.067 69.600,352.800 69.333,352.800 68.800 C 352.800 68.356,352.533 68.000,352.200 68.000 C 351.867 68.000,351.600 67.644,351.600 67.200 C 351.600 66.667,351.333 66.400,350.800 66.400 C 350.267 66.400,350.000 66.133,350.000 65.600 C 350.000 65.067,349.733 64.800,349.200 64.800 C 348.572 64.800,348.400 64.533,348.400 63.563 C 348.400 62.662,348.183 62.268,347.600 62.116 C 347.160 62.001,346.800 61.728,346.800 61.510 C 346.800 60.931,345.086 59.215,344.500 59.207 C 344.225 59.203,344.000 58.840,344.000 58.400 C 344.000 57.867,343.733 57.600,343.200 57.600 C 342.667 57.600,342.400 57.333,342.400 56.800 C 342.400 56.267,342.133 56.000,341.600 56.000 C 341.160 56.000,340.800 55.800,340.800 55.556 C 340.800 54.967,339.121 53.216,338.547 53.207 C 338.297 53.203,337.999 52.840,337.884 52.400 C 337.732 51.817,337.338 51.600,336.437 51.600 C 335.467 51.600,335.200 51.428,335.200 50.800 C 335.200 50.267,334.933 50.000,334.400 50.000 C 333.867 50.000,333.600 49.733,333.600 49.200 C 333.600 48.667,333.333 48.400,332.800 48.400 C 332.356 48.400,332.000 48.133,332.000 47.800 C 332.000 47.467,331.644 47.200,331.200 47.200 C 330.667 47.200,330.400 46.933,330.400 46.400 C 330.400 45.960,330.151 45.600,329.847 45.600 C 329.542 45.600,329.199 45.240,329.084 44.800 C 328.969 44.360,328.588 44.000,328.237 44.000 C 327.887 44.000,327.600 43.738,327.600 43.418 C 327.600 43.072,327.044 42.732,326.228 42.579 C 325.473 42.437,324.759 42.069,324.640 41.761 C 324.522 41.452,324.149 41.200,323.813 41.200 C 323.467 41.200,323.200 40.852,323.200 40.400 C 323.200 39.883,322.933 39.600,322.447 39.600 C 322.030 39.600,321.600 39.243,321.484 38.800 C 321.334 38.226,320.938 38.000,320.084 38.000 C 319.230 38.000,318.834 37.774,318.684 37.200 C 318.569 36.760,318.188 36.400,317.837 36.400 C 317.487 36.400,317.200 36.130,317.200 35.800 C 317.200 35.470,316.861 35.200,316.447 35.200 C 316.030 35.200,315.600 34.843,315.484 34.400 C 315.332 33.817,314.938 33.600,314.037 33.600 C 313.172 33.600,312.800 33.408,312.800 32.963 C 312.800 32.612,312.440 32.231,312.000 32.116 C 311.560 32.001,311.200 31.658,311.200 31.353 C 311.200 30.974,310.696 30.800,309.600 30.800 C 308.267 30.800,308.000 30.667,308.000 30.000 C 308.000 29.467,307.733 29.200,307.200 29.200 C 306.760 29.200,306.400 28.949,306.400 28.643 C 306.400 28.031,305.559 27.600,304.367 27.600 C 303.945 27.600,303.600 27.349,303.600 27.043 C 303.600 26.431,302.759 26.000,301.567 26.000 C 301.145 26.000,300.800 25.730,300.800 25.400 C 300.800 24.967,300.356 24.800,299.200 24.800 C 297.867 24.800,297.600 24.667,297.600 24.000 C 297.600 23.483,297.333 23.200,296.847 23.200 C 296.430 23.200,296.000 22.843,295.884 22.400 C 295.732 21.817,295.338 21.600,294.437 21.600 C 293.609 21.600,293.200 21.403,293.200 21.005 C 293.200 20.620,292.635 20.319,291.600 20.154 C 290.635 19.999,290.000 19.680,290.000 19.349 C 290.000 18.992,289.527 18.800,288.647 18.800 C 287.630 18.800,287.241 18.601,287.084 18.000 C 286.896 17.281,284.932 16.863,283.100 17.153 C 282.935 17.179,282.821 17.065,282.847 16.900 C 282.987 16.016,282.716 15.600,282.000 15.600 C 281.231 15.600,281.200 15.867,281.200 22.400 " stroke="none" fill="#648494" fill-rule="evenodd"></path><path id="path3" d="M191.930 9.100 C 200.581 9.160,214.621 9.160,223.130 9.100 C 231.638 9.040,224.560 8.990,207.400 8.990 C 190.240 8.990,183.278 9.040,191.930 9.100 M176.173 19.400 C 176.173 24.900,176.230 27.205,176.299 24.523 C 176.368 21.841,176.368 17.341,176.299 14.523 C 176.230 11.705,176.174 13.900,176.173 19.400 M280.483 40.276 C 280.437 45.818,280.535 50.437,280.700 50.539 C 280.865 50.641,280.954 47.727,280.897 44.063 C 280.702 31.468,280.566 30.219,280.483 40.276 M301.283 61.076 C 301.237 66.618,301.335 71.237,301.500 71.339 C 301.665 71.441,301.754 68.527,301.697 64.863 C 301.502 52.268,301.366 51.019,301.283 61.076 M92.574 82.000 C 92.574 87.610,92.630 89.905,92.699 87.100 C 92.768 84.295,92.768 79.705,92.699 76.900 C 92.630 74.095,92.574 76.390,92.574 82.000 M322.662 92.500 C 322.764 92.665,327.326 92.800,332.800 92.800 C 338.274 92.800,342.836 92.665,342.938 92.500 C 343.040 92.335,338.478 92.200,332.800 92.200 C 327.122 92.200,322.560 92.335,322.662 92.500 M76.900 92.699 C 79.705 92.768,84.295 92.768,87.100 92.699 C 89.905 92.630,87.610 92.574,82.000 92.574 C 76.390 92.574,74.095 92.630,76.900 92.699 M134.089 103.093 L 134.000 113.186 123.900 113.300 L 113.800 113.414 123.900 113.507 L 134.000 113.600 134.000 123.720 C 134.000 131.058,134.132 133.972,134.480 134.320 C 135.035 134.875,279.422 135.028,280.293 134.475 C 280.658 134.243,280.814 131.514,280.893 123.981 L 281.000 113.800 291.000 113.589 L 301.000 113.379 290.907 113.289 L 280.814 113.200 280.700 103.100 L 280.586 93.000 280.493 103.101 L 280.400 113.202 207.500 113.101 L 134.600 113.000 134.389 103.000 L 134.179 93.000 134.089 103.093 M280.307 123.900 L 280.200 134.200 207.400 134.200 L 134.600 134.200 134.493 123.900 L 134.386 113.600 207.400 113.600 L 280.414 113.600 280.307 123.900 M113.373 123.800 C 113.373 129.300,113.430 131.605,113.499 128.923 C 113.568 126.241,113.568 121.741,113.499 118.923 C 113.430 116.105,113.374 118.300,113.373 123.800 M98.123 134.299 C 100.941 134.368,105.441 134.368,108.123 134.299 C 110.805 134.230,108.500 134.173,103.000 134.173 C 97.500 134.174,95.305 134.230,98.123 134.299 M306.923 134.299 C 309.741 134.368,314.241 134.368,316.923 134.299 C 319.605 134.230,317.300 134.173,311.800 134.173 C 306.300 134.174,304.105 134.230,306.923 134.299 M113.467 155.067 C 113.320 155.213,113.200 159.890,113.200 165.460 L 113.200 175.587 102.700 175.693 L 92.200 175.800 92.096 196.468 C 92.004 214.863,92.062 217.205,92.625 217.768 C 93.167 218.310,94.673 218.400,103.228 218.400 L 113.198 218.400 113.300 298.500 L 113.403 378.600 113.401 298.400 L 113.400 218.200 103.343 218.093 C 95.503 218.010,93.188 217.868,92.840 217.448 C 92.520 217.063,92.422 211.104,92.496 196.555 L 92.600 176.200 103.000 176.000 L 113.400 175.800 113.600 165.600 L 113.800 155.400 124.000 155.400 L 134.200 155.400 134.304 175.979 C 134.384 191.832,134.521 196.630,134.904 196.873 C 135.177 197.046,139.852 197.191,145.293 197.194 L 155.186 197.200 155.293 207.500 L 155.400 217.800 175.755 217.904 C 190.453 217.979,196.261 217.882,196.655 217.555 C 197.088 217.195,197.200 215.066,197.200 207.151 L 197.200 197.200 207.151 197.200 C 214.985 197.200,217.197 197.086,217.547 196.663 C 217.858 196.289,218.024 189.990,218.096 175.763 L 218.200 155.400 228.400 155.400 L 238.600 155.400 238.704 175.763 C 238.776 189.990,238.942 196.289,239.253 196.663 C 239.603 197.086,241.815 197.200,249.649 197.200 L 259.600 197.200 259.600 207.151 C 259.600 214.985,259.714 217.197,260.137 217.547 C 260.511 217.858,266.810 218.024,281.037 218.096 L 301.400 218.200 301.400 280.600 L 301.400 343.000 291.432 343.107 C 284.898 343.177,281.281 343.366,280.932 343.656 C 280.515 344.002,280.400 346.253,280.400 354.049 L 280.400 364.000 228.680 364.000 C 188.987 364.000,176.848 364.112,176.480 364.480 C 176.119 364.841,176.023 369.214,176.094 382.180 L 176.187 399.400 176.394 382.000 L 176.600 364.600 228.600 364.400 L 280.600 364.200 280.800 354.000 L 281.000 343.800 290.968 343.693 C 297.502 343.623,301.119 343.434,301.468 343.144 C 302.263 342.484,302.259 218.713,301.463 218.053 C 301.089 217.742,294.790 217.576,280.563 217.504 L 260.200 217.400 260.200 207.400 L 260.200 197.400 280.779 197.296 C 296.614 197.217,301.436 197.078,301.700 196.696 C 302.188 195.989,301.615 156.327,301.107 155.700 C 300.517 154.972,260.683 154.972,260.092 155.700 C 259.839 156.012,259.577 163.828,259.394 176.507 L 259.101 196.814 249.250 196.707 L 239.400 196.600 239.296 176.237 C 239.224 162.010,239.058 155.711,238.747 155.337 C 238.246 154.733,219.032 154.538,218.104 155.127 C 217.721 155.370,217.584 160.168,217.504 176.021 L 217.400 196.600 207.400 196.600 L 197.400 196.600 197.000 176.000 L 196.600 155.400 176.000 155.400 L 155.400 155.400 155.000 176.000 L 154.600 196.600 144.800 196.600 L 135.000 196.600 134.896 176.237 C 134.824 162.010,134.658 155.711,134.347 155.337 C 133.873 154.765,114.025 154.508,113.467 155.067 M364.000 186.600 L 364.000 217.600 353.804 217.600 L 343.607 217.600 343.498 197.300 L 343.389 177.000 343.395 197.400 L 343.400 217.800 353.698 217.907 L 363.997 218.013 364.100 265.107 C 364.170 296.889,364.235 286.743,364.302 233.900 C 364.356 190.835,364.310 155.600,364.200 155.600 C 364.090 155.600,364.000 169.550,364.000 186.600 M196.400 186.400 L 196.400 196.400 176.000 196.400 L 155.600 196.400 155.600 186.667 C 155.600 181.313,155.720 176.813,155.867 176.667 C 156.013 176.520,165.193 176.400,176.267 176.400 L 196.400 176.400 196.400 186.400 M301.107 186.500 L 301.214 196.400 280.607 196.400 L 260.000 196.400 260.000 186.667 C 260.000 181.313,260.122 176.812,260.270 176.663 C 260.419 176.514,269.644 176.439,280.770 176.496 L 301.000 176.600 301.107 186.500 M196.600 207.400 L 196.600 217.400 176.100 217.504 L 155.600 217.607 155.600 207.670 C 155.600 202.205,155.722 197.612,155.870 197.463 C 156.019 197.314,165.244 197.239,176.370 197.296 L 196.600 197.400 196.600 207.400 M60.900 217.500 C 51.234 217.604,50.403 217.668,50.432 218.307 C 50.451 218.724,50.543 218.801,50.665 218.500 C 50.819 218.118,53.270 218.000,61.010 218.000 C 67.340 218.000,71.246 217.850,71.400 217.600 C 71.536 217.380,71.592 217.242,71.524 217.293 C 71.456 217.344,66.675 217.437,60.900 217.500 M384.984 218.500 C 384.879 218.775,384.839 231.150,384.897 246.000 L 385.000 273.000 385.200 245.500 C 385.310 230.375,385.349 218.000,385.287 218.000 C 385.226 218.000,385.089 218.225,384.984 218.500 M218.182 239.304 C 218.074 239.585,218.034 244.222,218.093 249.608 L 218.200 259.400 238.800 259.400 L 259.400 259.400 259.400 249.200 L 259.400 239.000 238.889 238.896 C 222.534 238.814,218.338 238.896,218.182 239.304 M259.200 249.200 L 259.200 259.200 238.800 259.200 L 218.400 259.200 218.400 249.200 L 218.400 239.200 238.800 239.200 L 259.200 239.200 259.200 249.200 M197.200 301.898 C 197.200 302.064,211.150 302.153,228.200 302.095 L 259.200 301.990 259.200 312.000 L 259.200 322.010 228.220 321.905 C 211.181 321.847,197.376 321.936,197.542 322.103 C 197.709 322.269,211.695 322.359,228.623 322.303 L 259.400 322.200 259.400 312.000 L 259.400 301.800 228.300 301.698 C 211.195 301.641,197.200 301.731,197.200 301.898 M343.378 322.912 C 343.270 323.194,343.231 326.839,343.292 331.012 L 343.402 338.600 343.601 330.500 C 343.796 322.558,343.776 321.876,343.378 322.912 M322.661 343.500 C 322.558 343.665,324.843 343.753,327.737 343.696 C 337.595 343.501,338.613 343.359,330.724 343.279 C 326.392 343.236,322.763 343.335,322.661 343.500 M88.400 364.225 C 89.803 364.535,92.318 364.590,92.143 364.307 C 92.038 364.138,91.018 364.021,89.876 364.046 C 88.734 364.072,88.070 364.152,88.400 364.225 M301.860 364.300 C 301.758 364.465,303.232 364.552,305.137 364.493 C 311.528 364.295,312.238 364.145,307.124 364.072 C 304.332 364.032,301.963 364.135,301.860 364.300 " stroke="none" fill="#5c3c0c" fill-rule="evenodd"></path><path id="path4" d="M175.600 0.376 C 175.600 0.583,175.780 0.864,176.000 1.000 C 176.221 1.137,176.400 2.937,176.400 5.024 L 176.400 8.800 207.400 8.800 L 238.400 8.800 238.400 7.456 C 238.400 6.717,238.514 5.277,238.654 4.256 L 238.909 2.400 237.101 2.400 C 235.630 2.400,235.254 2.251,235.084 1.600 C 234.888 0.851,234.538 0.800,229.637 0.800 C 226.412 0.800,224.400 0.646,224.400 0.400 C 224.400 0.138,216.000 0.000,200.000 0.000 C 185.020 0.000,175.600 0.145,175.600 0.376 M135.200 8.971 C 135.200 9.317,135.017 9.600,134.793 9.600 C 134.525 9.600,134.423 13.050,134.493 19.700 L 134.600 29.800 155.200 29.800 L 175.800 29.800 175.907 19.524 L 176.013 9.247 159.107 9.034 C 149.808 8.916,140.625 8.712,138.700 8.581 C 135.682 8.374,135.200 8.428,135.200 8.971 M257.000 8.823 C 256.120 9.005,251.665 9.164,247.100 9.177 L 238.800 9.200 238.800 19.151 C 238.800 27.066,238.912 29.195,239.345 29.555 C 239.739 29.882,245.495 29.979,260.045 29.904 L 280.200 29.800 280.400 22.800 C 280.510 18.950,280.465 15.740,280.300 15.667 C 280.135 15.593,280.000 15.298,280.000 15.009 C 280.000 14.395,279.126 14.000,277.767 14.000 C 277.174 14.000,276.800 13.768,276.800 13.400 C 276.800 12.939,276.289 12.800,274.600 12.800 C 272.667 12.800,272.400 12.703,272.400 12.000 C 272.400 11.337,272.133 11.200,270.847 11.200 C 269.630 11.200,269.248 11.027,269.084 10.400 C 268.909 9.732,268.538 9.600,266.837 9.600 C 265.293 9.600,264.800 9.455,264.800 9.000 C 264.800 8.321,259.960 8.211,257.000 8.823 M113.783 30.501 C 113.674 30.784,113.634 35.422,113.693 40.808 L 113.800 50.600 123.645 50.707 C 131.664 50.794,133.576 50.711,133.953 50.257 C 134.281 49.862,134.383 46.876,134.307 39.950 L 134.200 30.200 124.090 30.093 C 116.142 30.009,113.938 30.096,113.783 30.501 M280.893 40.293 L 281.000 50.600 291.107 50.707 L 301.214 50.814 301.107 40.507 L 301.000 30.200 290.893 30.093 L 280.786 29.986 280.893 40.293 M93.067 51.067 C 92.920 51.213,92.800 55.893,92.800 61.467 L 92.800 71.600 102.720 71.600 C 109.902 71.600,112.772 71.468,113.120 71.120 C 113.802 70.438,113.802 51.962,113.120 51.280 C 112.600 50.760,93.576 50.558,93.067 51.067 M301.783 51.301 C 301.674 51.584,301.634 56.222,301.693 61.608 L 301.800 71.400 311.907 71.507 L 322.014 71.614 321.907 61.307 L 321.800 51.000 311.890 50.893 C 304.104 50.809,301.938 50.896,301.783 51.301 M72.000 82.200 L 72.000 92.400 82.200 92.400 L 92.400 92.400 92.400 82.200 L 92.400 72.000 82.200 72.000 L 72.000 72.000 72.000 82.200 M322.493 82.093 L 322.600 92.200 332.800 92.200 L 343.000 92.200 343.000 82.200 L 343.000 72.200 332.693 72.093 L 322.386 71.986 322.493 82.093 M134.893 92.734 C 134.501 92.983,134.410 95.317,134.493 103.028 L 134.600 113.000 207.507 113.101 L 280.414 113.202 280.307 102.901 L 280.200 92.600 207.800 92.506 C 167.980 92.454,135.172 92.556,134.893 92.734 M50.984 93.300 C 50.879 93.575,50.840 107.570,50.897 124.400 L 51.000 155.000 61.200 155.000 L 71.400 155.000 71.502 123.900 L 71.605 92.800 61.390 92.800 C 53.586 92.800,51.130 92.918,50.984 93.300 M343.387 93.293 C 343.280 93.572,343.240 107.570,343.297 124.400 L 343.400 155.000 353.702 155.107 L 364.005 155.214 363.902 124.107 L 363.800 93.000 353.690 92.893 C 345.818 92.810,343.537 92.898,343.387 93.293 M113.600 123.520 C 113.600 130.702,113.468 133.572,113.120 133.920 C 112.773 134.267,109.912 134.400,102.763 134.400 C 94.125 134.400,92.855 134.479,92.643 135.033 C 92.509 135.381,92.400 144.651,92.400 155.633 L 92.400 175.600 102.793 175.600 L 113.186 175.600 113.293 165.300 L 113.400 155.000 123.646 154.893 C 131.887 154.808,133.979 154.893,134.342 155.330 C 134.660 155.713,134.823 161.859,134.896 176.237 L 135.000 196.600 144.800 196.600 L 154.600 196.600 155.000 176.000 L 155.400 155.400 176.000 155.400 L 196.600 155.400 197.000 176.000 L 197.400 196.600 207.400 196.600 L 217.400 196.600 217.504 176.021 C 217.584 160.168,217.721 155.370,218.104 155.127 C 219.032 154.538,238.246 154.733,238.747 155.337 C 239.058 155.711,239.224 162.010,239.296 176.237 L 239.400 196.600 249.250 196.707 L 259.101 196.814 259.394 176.507 C 259.577 163.828,259.839 156.012,260.092 155.700 C 260.683 154.972,300.517 154.972,301.107 155.700 C 301.615 156.327,302.188 195.989,301.700 196.696 C 301.436 197.078,296.614 197.217,280.779 197.296 L 260.200 197.400 260.200 207.400 L 260.200 217.400 280.563 217.504 C 294.790 217.576,301.089 217.742,301.463 218.053 C 302.259 218.713,302.263 342.484,301.468 343.144 C 301.119 343.434,297.502 343.623,290.968 343.693 L 281.000 343.800 280.800 354.000 L 280.600 364.200 228.600 364.400 L 176.600 364.600 176.496 381.900 C 176.429 392.973,176.249 399.200,175.996 399.200 C 175.778 399.200,175.600 399.380,175.600 399.600 C 175.600 399.862,184.000 400.000,200.000 400.000 C 216.000 400.000,224.400 399.862,224.400 399.600 C 224.400 399.354,226.412 399.200,229.637 399.200 C 234.538 399.200,234.888 399.149,235.084 398.400 C 235.253 397.754,235.630 397.600,237.036 397.600 L 238.779 397.600 238.890 391.500 L 239.000 385.400 255.800 385.279 C 266.855 385.199,273.590 385.311,275.496 385.607 C 278.599 386.089,280.000 385.892,280.000 384.973 C 280.000 384.585,280.451 384.400,281.400 384.400 C 282.267 384.400,283.105 384.095,283.600 383.600 C 284.095 383.105,284.933 382.800,285.800 382.800 C 286.933 382.800,287.200 382.648,287.200 382.000 C 287.200 381.351,287.467 381.200,288.613 381.200 C 289.499 381.200,290.111 380.977,290.255 380.600 C 290.382 380.270,290.812 380.000,291.210 380.000 C 292.362 380.000,293.200 379.561,293.200 378.957 C 293.200 378.606,293.639 378.400,294.386 378.400 C 295.162 378.400,295.720 378.124,296.000 377.600 C 296.235 377.160,296.692 376.800,297.014 376.800 C 297.336 376.800,297.600 376.440,297.600 376.000 C 297.600 375.333,297.867 375.200,299.200 375.200 C 300.314 375.200,300.800 375.028,300.800 374.633 C 300.800 374.322,301.016 373.995,301.279 373.907 C 301.614 373.795,301.764 372.310,301.779 368.974 L 301.800 364.200 307.000 364.216 C 309.860 364.224,313.325 364.385,314.700 364.573 C 316.891 364.872,317.200 364.833,317.200 364.257 C 317.200 363.896,317.487 363.600,317.837 363.600 C 318.188 363.600,318.569 363.240,318.684 362.800 C 318.841 362.199,319.230 362.000,320.247 362.000 C 321.333 362.000,321.600 361.842,321.600 361.200 C 321.600 360.652,321.867 360.400,322.447 360.400 C 323.180 360.400,323.251 360.253,322.977 359.300 C 322.802 358.695,322.646 354.870,322.630 350.800 L 322.600 343.400 330.000 343.279 C 337.313 343.160,340.219 343.497,340.894 344.544 C 341.106 344.873,341.189 344.860,341.194 344.500 C 341.197 344.225,341.470 344.000,341.800 344.000 C 342.133 344.000,342.400 343.644,342.400 343.200 C 342.400 342.667,342.667 342.400,343.200 342.400 C 343.644 342.400,344.000 342.133,344.000 341.800 C 344.000 341.470,344.225 341.197,344.500 341.194 C 344.860 341.189,344.873 341.106,344.544 340.894 C 343.497 340.219,343.160 337.313,343.279 330.000 L 343.400 322.600 350.800 322.630 C 354.870 322.646,358.695 322.802,359.300 322.977 C 360.253 323.251,360.400 323.180,360.400 322.447 C 360.400 321.867,360.652 321.600,361.200 321.600 C 361.842 321.600,362.000 321.333,362.000 320.247 C 362.000 319.230,362.199 318.841,362.800 318.684 C 363.240 318.569,363.600 318.188,363.600 317.837 C 363.600 317.487,363.888 317.200,364.240 317.200 C 364.778 317.200,364.834 316.895,364.592 315.300 C 364.434 314.255,364.232 291.938,364.144 265.707 L 363.984 218.013 353.692 217.907 L 343.400 217.800 343.200 197.000 L 343.000 176.200 332.800 176.000 L 322.600 175.800 322.400 155.200 L 322.200 134.600 312.000 134.400 L 301.800 134.200 301.600 124.000 L 301.400 113.800 291.200 113.800 L 281.000 113.800 280.893 123.981 C 280.814 131.514,280.658 134.243,280.293 134.475 C 279.422 135.028,135.035 134.875,134.480 134.320 C 134.132 133.972,134.000 131.058,134.000 123.720 L 134.000 113.600 123.800 113.600 L 113.600 113.600 113.600 123.520 M30.098 186.700 L 30.200 217.800 40.400 217.800 L 50.600 217.800 50.702 186.700 L 50.805 155.600 40.400 155.600 L 29.995 155.600 30.098 186.700 M364.400 186.807 L 364.400 218.014 374.500 217.907 L 384.600 217.800 384.702 186.700 L 384.805 155.600 374.602 155.600 L 364.400 155.600 364.400 186.807 M72.053 176.537 C 71.742 176.911,71.576 183.210,71.504 197.437 L 71.400 217.800 61.100 217.907 L 50.800 218.014 50.800 270.207 L 50.800 322.400 47.250 322.400 C 42.301 322.400,41.200 322.664,41.200 323.850 C 41.200 324.428,41.435 324.800,41.800 324.800 C 42.204 324.800,42.400 325.204,42.400 326.037 C 42.400 326.938,42.617 327.332,43.200 327.484 C 43.640 327.599,44.000 327.959,44.000 328.284 C 44.000 328.609,44.360 328.969,44.800 329.084 C 45.240 329.199,45.600 329.542,45.600 329.847 C 45.600 330.151,45.960 330.400,46.400 330.400 C 46.933 330.400,47.200 330.667,47.200 331.200 C 47.200 331.644,47.467 332.000,47.800 332.000 C 48.140 332.000,48.400 332.359,48.400 332.828 C 48.400 333.454,48.616 333.624,49.284 333.528 C 50.474 333.356,50.712 332.282,50.760 326.893 L 50.800 322.386 61.100 322.493 L 71.400 322.600 71.400 337.800 C 71.400 346.160,71.248 353.597,71.062 354.328 C 70.771 355.473,70.834 355.684,71.525 355.865 C 71.966 355.980,72.416 356.417,72.526 356.837 C 72.668 357.380,73.081 357.600,73.963 357.600 C 74.796 357.600,75.200 357.796,75.200 358.200 C 75.200 358.533,75.556 358.800,76.000 358.800 C 76.533 358.800,76.800 359.067,76.800 359.600 C 76.800 360.133,77.067 360.400,77.600 360.400 C 78.133 360.400,78.400 360.667,78.400 361.200 C 78.400 361.848,78.667 362.000,79.800 362.000 C 80.814 362.000,81.200 362.176,81.200 362.637 C 81.200 362.988,81.560 363.369,82.000 363.484 C 82.440 363.599,82.800 363.968,82.800 364.304 C 82.800 364.820,83.183 364.864,85.300 364.588 C 86.675 364.409,88.790 364.249,90.000 364.231 L 92.200 364.200 92.324 366.388 C 92.421 368.107,92.298 368.685,91.747 369.088 C 91.362 369.370,91.261 369.600,91.524 369.600 C 91.786 369.600,92.000 369.870,92.000 370.200 C 92.000 370.530,92.264 370.800,92.586 370.800 C 92.908 370.800,93.365 371.160,93.600 371.600 C 93.880 372.124,94.438 372.400,95.214 372.400 C 96.133 372.400,96.400 372.580,96.400 373.200 C 96.400 373.848,96.667 374.000,97.800 374.000 C 98.778 374.000,99.200 374.181,99.200 374.600 C 99.200 375.033,99.644 375.200,100.800 375.200 C 102.133 375.200,102.400 375.333,102.400 376.000 C 102.400 376.440,102.664 376.800,102.986 376.800 C 103.308 376.800,103.765 377.160,104.000 377.600 C 104.280 378.124,104.838 378.400,105.614 378.400 C 106.361 378.400,106.800 378.606,106.800 378.957 C 106.800 379.561,107.638 380.000,108.790 380.000 C 109.188 380.000,109.618 380.270,109.745 380.600 C 110.285 382.007,112.673 381.335,112.943 379.700 C 113.080 378.875,113.193 342.245,113.196 298.300 L 113.200 218.400 103.229 218.400 C 94.697 218.400,93.166 218.309,92.629 217.771 C 92.073 217.216,92.000 214.739,92.000 196.571 L 92.000 176.000 82.249 176.000 C 74.582 176.000,72.403 176.115,72.053 176.537 M155.870 197.463 C 155.722 197.612,155.600 202.205,155.600 207.670 L 155.600 217.607 176.100 217.504 L 196.600 217.400 196.600 207.400 L 196.600 197.400 176.370 197.296 C 165.244 197.239,156.019 197.314,155.870 197.463 M9.400 218.493 C 9.300 218.772,9.130 227.730,9.022 238.400 C 8.914 249.070,8.717 259.375,8.583 261.300 C 8.374 264.320,8.428 264.800,8.971 264.800 C 9.461 264.800,9.600 265.251,9.600 266.837 C 9.600 268.538,9.732 268.909,10.400 269.084 C 11.027 269.248,11.200 269.630,11.200 270.847 C 11.200 272.133,11.337 272.400,12.000 272.400 C 12.703 272.400,12.800 272.667,12.800 274.600 C 12.800 276.289,12.939 276.800,13.400 276.800 C 13.768 276.800,14.000 277.174,14.000 277.767 C 14.000 279.148,14.398 280.000,15.043 280.000 C 15.413 280.000,15.600 280.470,15.600 281.400 C 15.600 282.267,15.905 283.105,16.400 283.600 C 16.895 284.095,17.200 284.933,17.200 285.800 C 17.200 286.933,17.352 287.200,18.000 287.200 C 18.649 287.200,18.800 287.467,18.800 288.613 C 18.800 289.499,19.023 290.111,19.400 290.255 C 19.730 290.382,20.000 290.812,20.000 291.210 C 20.000 292.362,20.439 293.200,21.043 293.200 C 21.394 293.200,21.600 293.639,21.600 294.386 C 21.600 295.162,21.876 295.720,22.400 296.000 C 22.840 296.235,23.200 296.692,23.200 297.014 C 23.200 297.336,23.560 297.600,24.000 297.600 C 24.667 297.600,24.800 297.867,24.800 299.200 C 24.800 300.356,24.967 300.800,25.400 300.800 C 25.819 300.800,26.000 301.222,26.000 302.200 C 26.000 303.333,26.152 303.600,26.800 303.600 C 27.420 303.600,27.600 303.867,27.600 304.786 C 27.600 305.530,27.875 306.119,28.338 306.367 C 29.918 307.213,30.059 303.036,29.925 259.200 L 29.800 218.200 19.690 218.093 C 11.813 218.010,9.540 218.098,9.400 218.493 M385.467 218.267 C 385.128 218.606,385.121 271.881,385.459 274.700 C 385.839 277.858,387.200 277.780,387.200 274.600 C 387.200 272.667,387.297 272.400,388.000 272.400 C 388.663 272.400,388.800 272.133,388.800 270.847 C 388.800 269.630,388.973 269.248,389.600 269.084 C 390.268 268.909,390.400 268.538,390.400 266.837 C 390.400 265.293,390.545 264.800,391.000 264.800 C 391.459 264.800,391.600 264.294,391.600 262.647 C 391.600 260.830,391.725 260.461,392.400 260.284 C 393.105 260.100,393.200 259.738,393.200 257.237 C 393.200 254.667,393.275 254.400,394.000 254.400 C 394.703 254.400,394.800 254.133,394.800 252.200 C 394.800 250.533,394.994 249.806,395.600 249.200 C 396.258 248.542,396.400 247.867,396.400 245.400 C 396.400 243.000,396.520 242.400,397.000 242.400 C 397.488 242.400,397.600 241.739,397.600 238.847 C 397.600 235.630,397.676 235.273,398.400 235.084 C 399.149 234.888,399.200 234.538,399.200 229.637 C 399.200 226.412,399.354 224.400,399.600 224.400 C 399.833 224.400,400.000 223.067,400.000 221.200 L 400.000 218.000 392.867 218.000 C 388.943 218.000,385.613 218.120,385.467 218.267 M218.400 249.200 L 218.400 259.200 238.800 259.200 L 259.200 259.200 259.200 249.200 L 259.200 239.200 238.800 239.200 L 218.400 239.200 218.400 249.200 M383.500 282.832 C 382.748 283.270,382.552 284.000,383.186 284.000 C 383.398 284.000,383.765 283.640,384.000 283.200 C 384.487 282.290,384.462 282.272,383.500 282.832 M197.380 302.508 C 197.273 302.788,197.233 307.243,197.292 312.408 L 197.400 321.800 228.300 321.902 L 259.200 322.005 259.200 312.002 L 259.200 302.000 228.387 302.000 C 203.839 302.000,197.535 302.103,197.380 302.508 M248.403 395.597 C 247.894 396.039,247.651 396.400,247.862 396.400 C 248.456 396.400,249.828 395.295,249.564 395.030 C 249.434 394.901,248.912 395.156,248.403 395.597 " stroke="none" fill="#040404" fill-rule="evenodd"></path></g></svg>